# xmcd
#
# Track frame offsets: 
#        150
#        14325
#        28715
#        40060
#        53305
#        69332
#        86325
#        101347
#        120407
#        137607
#        153065
#        161467
#        181497
#        192977
#        209930
#        225797
#        242100
#
# Disc length: 3400 seconds
#
# Revision: 0
# Processed by: cddbd v1.5.2PL0 Copyright (c) Steve Scherf et al.
# Submitted via: ExactAudioCopy v0.99pb5
#
DISCID=ca0d4611
DTITLE=Various Artist - Country-Rockin' Trust [Willin']
DYEAR=1900
DGENRE=Country
TTITLE0=Old 97's - Timebomb
TTITLE1=The Derailers - The Right Place
TTITLE2=The Monkees - Some Of Shelly's Blues
TTITLE3=Jump 'n' The Saddle Band - The Curly Shuffle
TTITLE4=Firefall - Cinderella
TTITLE5=Southern Pacific - New Shade Of Blue
TTITLE6=The Texas Tornados - She Never Spoke Spanish To Me
TTITLE7=Tony Joe White - Copper Kettle (The Pale Moonlight)
TTITLE8=Tracy Nelson - Tennessee Blues
TTITLE9=The Georgia Satellites - Keep Your Hands To Yourself
TTITLE10=J. Geils Band - Truck Drivin' Man
TTITLE11=The Lemonheads - Big Gay Heart
TTITLE12=Eric Weissberg and Deliverance - 'Til The End Of The World Roll
TTITLE12=s Around
TTITLE13=Honky Red - Bob Neuwirth
TTITLE14=Spit And Tears - The Damnations TX
TTITLE15=Commander Cody and His Lost Planet Airmen - Willin'
TTITLE16=Dan Penn - The Dark End Of The Street
EXTD=
EXTT0=
EXTT1=
EXTT2=
EXTT3=
EXTT4=
EXTT5=
EXTT6=
EXTT7=
EXTT8=
EXTT9=
EXTT10=
EXTT11=
EXTT12=
EXTT13=
EXTT14=
EXTT15=
EXTT16=
PLAYORDER=
